<?xml version="1.0" encoding="UTF-8"?>
<svg width="24px" height="24px" viewBox="0 0 24 24" version="1.1" xmlns="http://www.w3.org/2000/svg" xmlns:xlink="http://www.w3.org/1999/xlink">
    <!-- Generator: Sketch 41 (35326) - http://www.bohemiancoding.com/sketch -->
    <title>Article</title>
    <desc>Created with Sketch.</desc>
    <defs></defs>
    <g id="Page-1" stroke="none" stroke-width="1" fill="none" fill-rule="evenodd">
        <g id="Artboard-3-Copy" transform="translate(-28.000000, -28.000000)" fill="#FFFFFF">
            <path d="M28,30.9910904 C28,29.3391568 29.3417706,28 30.9910904,28 L49.0089096,28 C50.6608432,28 52,29.3417706 52,30.9910904 L52,49.0089096 C52,50.6608432 50.6582294,52 49.0089096,52 L30.9910904,52 C29.3391568,52 28,50.6582294 28,49.0089096 L28,30.9910904 Z M46,36 C47.1045695,36 48,35.1045695 48,34 C48,32.8954305 47.1045695,32 46,32 C44.8954305,32 44,32.8954305 44,34 C44,35.1045695 44.8954305,36 46,36 Z M31,38 L40,38 L40,42 L31,42 L31,38 Z M31,44 L49,44 L49,48 L31,48 L31,44 Z M31,32 L42,32 L42,36 L31,36 L31,32 Z" id="Article"></path>
        </g>
    </g>
</svg>